<?xml version="1.0" encoding="UTF-8" standalone="no"?><!DOCTYPE svg PUBLIC "-//W3C//DTD SVG 1.1//EN" "http://www.w3.org/Graphics/SVG/1.1/DTD/svg11.dtd"><svg width="100%" height="100%" viewBox="0 0 32 32" version="1.1" xmlns="http://www.w3.org/2000/svg" xmlns:xlink="http://www.w3.org/1999/xlink" xml:space="preserve" xmlns:serif="http://www.serif.com/" style="fill-rule:evenodd;clip-rule:evenodd;stroke-linejoin:round;stroke-miterlimit:2;"><path d="M1,11.226l0,-3.583l12.707,-6.643l0,3.291l-9.386,5.078l9.388,5.18l0,3.321l-12.709,-6.644Zm29.8,-9.515l-11.088,15.468l-3.807,0l11.11,-15.469l3.785,0.001Zm-3.072,13.616c0.255,0.005 0.498,-0.105 0.664,-0.298c0.184,-0.219 0.279,-0.499 0.265,-0.784c0.011,-0.292 -0.083,-0.579 -0.265,-0.807c-0.156,-0.202 -0.397,-0.321 -0.652,-0.321c-0.255,0 -0.497,0.119 -0.652,0.321c-0.182,0.228 -0.277,0.515 -0.266,0.807c-0.013,0.283 0.077,0.562 0.254,0.784c0.16,0.194 0.401,0.304 0.652,0.298Zm2.343,1.116c-1.319,1.192 -3.35,1.187 -4.663,-0.01c-0.592,-0.578 -0.926,-1.37 -0.926,-2.197c0,-0.826 0.334,-1.619 0.926,-2.196c1.312,-1.202 3.35,-1.202 4.663,0c0.603,0.571 0.94,1.37 0.928,2.2c0.016,0.831 -0.321,1.631 -0.927,2.199l-0.001,0.004Zm-11.049,-10.158c0.255,0.005 0.498,-0.104 0.663,-0.298c0.184,-0.218 0.279,-0.498 0.266,-0.784c0.011,-0.292 -0.084,-0.578 -0.266,-0.807c-0.156,-0.201 -0.397,-0.32 -0.652,-0.32c-0.255,0 -0.496,0.119 -0.652,0.32c-0.182,0.229 -0.276,0.515 -0.265,0.807c-0.014,0.284 0.077,0.563 0.254,0.784c0.16,0.195 0.401,0.305 0.652,0.298Zm2.342,1.113c-1.318,1.192 -3.35,1.187 -4.662,-0.01c-0.592,-0.578 -0.926,-1.37 -0.926,-2.197c0,-0.826 0.334,-1.619 0.926,-2.196c1.312,-1.201 3.35,-1.201 4.662,0c0.606,0.573 0.943,1.376 0.928,2.21c0.015,0.829 -0.323,1.627 -0.928,2.193Z" style="fill:#90a93a;fill-rule:nonzero;"/><path d="M10.52,27.843l0,2.897l-9.52,0l0,-11.391l9.308,0l0,2.896l-5.513,0l0,1.335l4.842,0l0,2.766l-4.842,0l0,1.497l5.725,0Z" style="fill:#90a93a;fill-rule:nonzero;"/><path d="M14.904,31c-0.894,0 -1.704,-0.144 -2.429,-0.431c-0.725,-0.288 -1.322,-0.708 -1.791,-1.261l2.077,-2.441c0.306,0.379 0.605,0.662 0.9,0.846c0.294,0.184 0.6,0.277 0.916,0.277c0.403,0 0.711,-0.12 0.924,-0.358c0.213,-0.239 0.319,-0.592 0.319,-1.058l0,-4.329l-3.893,0l0,-2.896l7.704,0l0,6.997c0,1.551 -0.4,2.715 -1.202,3.491c-0.801,0.775 -1.976,1.163 -3.525,1.163Z" style="fill:#90a93a;fill-rule:nonzero;"/><path d="M25.667,31c-0.948,0 -1.873,-0.106 -2.772,-0.317c-0.9,-0.212 -1.639,-0.497 -2.217,-0.855l1.243,-2.798c0.546,0.314 1.156,0.566 1.833,0.756c0.676,0.19 1.325,0.285 1.946,0.285c0.534,0 0.916,-0.052 1.145,-0.155c0.229,-0.103 0.344,-0.257 0.344,-0.463c0,-0.239 -0.15,-0.418 -0.45,-0.537c-0.3,-0.12 -0.794,-0.25 -1.481,-0.391c-0.883,-0.184 -1.619,-0.382 -2.208,-0.594c-0.589,-0.211 -1.101,-0.559 -1.537,-1.041c-0.437,-0.483 -0.655,-1.137 -0.655,-1.961c0,-0.716 0.202,-1.367 0.605,-1.953c0.404,-0.586 1.006,-1.047 1.808,-1.383c0.802,-0.336 1.775,-0.504 2.92,-0.504c0.785,0 1.557,0.084 2.314,0.252c0.758,0.168 1.426,0.415 2.004,0.74l-1.161,2.783c-1.123,-0.564 -2.187,-0.846 -3.19,-0.846c-0.992,0 -1.488,0.238 -1.488,0.716c0,0.227 0.147,0.398 0.441,0.512c0.295,0.114 0.78,0.236 1.456,0.366c0.872,0.163 1.609,0.35 2.208,0.562c0.6,0.211 1.121,0.556 1.563,1.033c0.441,0.477 0.662,1.128 0.662,1.953c0,0.716 -0.202,1.364 -0.605,1.944c-0.404,0.581 -1.006,1.042 -1.808,1.383c-0.801,0.342 -1.775,0.513 -2.92,0.513Z" style="fill:#90a93a;fill-rule:nonzero;"/></svg>